<svg preserveAspectRatio="none" width="100%" height="100%" overflow="visible" style="display: block;" viewBox="0 0 1928 958" fill="none" xmlns="http://www.w3.org/2000/svg">
<g id="Group 280">
<path id="Rectangle 309" d="M1239.01 933.315V750.447C1239.01 649.452 1157.14 567.579 1056.14 567.579V567.579C955.145 567.579 873.272 649.452 873.272 750.447V933.315" stroke="var(--stroke-0, white)" stroke-opacity="0.7" stroke-width="4"/>
<g id="Group 279">
<path id="Rectangle 310" d="M663.786 18.1064V751.962C663.786 852.12 744.981 933.315 845.139 933.315V933.315" stroke="var(--stroke-0, white)" stroke-opacity="0.7" stroke-width="4"/>
<path id="Rectangle 311" d="M845.139 567.147H745.869C552.569 567.147 395.869 723.847 395.869 917.147V933.315" stroke="var(--stroke-0, white)" stroke-opacity="0.7" stroke-width="4"/>
</g>
<path id="Rectangle 312" d="M367.735 933.315V750.447C367.735 649.452 285.863 567.579 184.868 567.579V567.579C83.8726 567.579 2 649.452 2 750.447V750.447C2 851.442 83.8726 933.315 184.868 933.315V933.315" stroke="var(--stroke-0, white)" stroke-opacity="0.7" stroke-width="4"/>
<path id="Rectangle 313" d="M1632.88 933.315H1450.01C1349.01 933.315 1267.14 851.442 1267.14 750.447V750.447C1267.14 649.452 1349.01 567.579 1450.01 567.579V567.579C1551 567.579 1632.88 649.452 1632.88 750.447V750.447" stroke="var(--stroke-0, white)" stroke-opacity="0.7" stroke-width="4"/>
<g id="Group 278">
<path id="Line 107" d="M1183.5 25.1065L1777.88 750.663M1914 932.882L1820.69 807.968" stroke="var(--stroke-0, white)" stroke-opacity="0.7" stroke-width="4"/>
<path id="Line 108" d="M1926 551.918L1639.23 931.774" stroke="var(--stroke-0, white)" stroke-opacity="0.7" stroke-width="4"/>
</g>
</g>
</svg>
