<svg preserveAspectRatio="none" width="100%" height="100%" overflow="visible" style="display: block;" viewBox="0 0 1927 963" fill="none" xmlns="http://www.w3.org/2000/svg">
<g id="Group 280">
<path id="Rectangle 309" d="M1239.01 939.208V756.341C1239.01 655.346 1157.14 573.473 1056.14 573.473V573.473C955.145 573.473 873.272 655.346 873.272 756.341V939.208" stroke="var(--stroke-0, black)" stroke-opacity="0.02" stroke-width="4"/>
<g id="Group 279">
<path id="Rectangle 310" d="M663.786 10.3115V757.856C663.786 858.014 744.981 939.208 845.139 939.208V939.208" stroke="var(--stroke-0, black)" stroke-opacity="0.02" stroke-width="4"/>
<path id="Rectangle 311" d="M845.139 573.04H745.869C552.569 573.04 395.869 729.741 395.869 923.04V939.208" stroke="var(--stroke-0, black)" stroke-opacity="0.02" stroke-width="4"/>
</g>
<path id="Rectangle 312" d="M367.735 939.208V756.341C367.735 655.346 285.863 573.473 184.868 573.473V573.473C83.8726 573.473 2 655.346 2 756.341V756.341C2 857.336 83.8726 939.208 184.868 939.208V939.208" stroke="var(--stroke-0, black)" stroke-opacity="0.02" stroke-width="4"/>
<path id="Rectangle 313" d="M1632.88 939.208H1450.01C1349.01 939.208 1267.14 857.336 1267.14 756.341V756.341C1267.14 655.346 1349.01 573.473 1450.01 573.473V573.473C1551 573.473 1632.88 655.346 1632.88 756.341V756.341" stroke="var(--stroke-0, black)" stroke-opacity="0.02" stroke-width="4"/>
<g id="Group 278">
<path id="Line 107" d="M1180.5 23.3115L1776.88 756.557M1913 938.776L1819.69 813.862" stroke="var(--stroke-0, black)" stroke-opacity="0.02" stroke-width="4"/>
<path id="Line 108" d="M1925 557.811L1638.23 937.668" stroke="var(--stroke-0, black)" stroke-opacity="0.02" stroke-width="4"/>
</g>
</g>
</svg>
