<svg preserveAspectRatio="none" width="100%" height="100%" overflow="visible" style="display: block;" viewBox="0 0 24 16" fill="none" xmlns="http://www.w3.org/2000/svg">
<path id="Vector" d="M16.9725 0.987661C13.6572 -0.378539 10.1016 -0.279539 7.029 0.989461C3.957 2.25906 1.3719 4.69626 0 8.00016C1.2735 11.0635 3.717 13.6438 7.0275 15.0118C10.3419 16.3792 13.8984 16.2805 16.971 15.0097C20.0421 13.7413 22.6281 11.3038 24 8.00016C22.7277 4.93656 20.283 2.35626 16.9725 0.987661ZM16.2069 13.1611C14.8602 13.7176 13.4433 14.0002 11.994 14.0002C10.5504 14.0002 9.1368 13.7188 7.7898 13.1632C5.3436 12.1516 3.3843 10.3351 2.1999 8.00016C3.3834 5.66616 5.3436 3.85026 7.7928 2.83806C9.1395 2.28186 10.5564 1.99986 12.0066 1.99986C13.4493 1.99986 14.8629 2.28156 16.2108 2.83686C18.6561 3.84816 20.6163 5.66436 21.7998 8.00046C20.6163 10.3339 18.6564 12.1495 16.2069 13.1611Z" fill="var(--fill-0, black)"/>
</svg>
