<svg preserveAspectRatio="none" width="100%" height="100%" overflow="visible" style="display: block;" viewBox="0 0 21 9" fill="none" xmlns="http://www.w3.org/2000/svg">
<g id="Vector">
<path d="M19.3333 7.41667V5.27778C19.3333 4.14324 18.8504 3.05517 17.9909 2.25293C17.1314 1.45069 15.9656 1 14.75 1H5.58333C4.36776 1 3.20197 1.45069 2.34243 2.25293C1.48289 3.05517 1 4.14324 1 5.27778V7.41667" stroke="var(--stroke-0, black)" stroke-width="2" stroke-linecap="round" stroke-linejoin="round"/>
<path d="M19.3333 7.41667V5.27778C19.3333 4.14324 18.8504 3.05517 17.9909 2.25293C17.1314 1.45069 15.9656 1 14.75 1H5.58333C4.36776 1 3.20197 1.45069 2.34243 2.25293C1.48289 3.05517 1 4.14324 1 5.27778V7.41667" stroke="var(--stroke-1, black)" stroke-opacity="0.2" stroke-width="2" stroke-linecap="round" stroke-linejoin="round"/>
</g>
</svg>
