<svg preserveAspectRatio="none" width="100%" height="100%" overflow="visible" style="display: block;" viewBox="0 0 20 26" fill="none" xmlns="http://www.w3.org/2000/svg">
<path id="Vector" d="M16.4283 17.7144C16.4283 17.9417 16.338 18.1598 16.1772 18.3205C16.0165 18.4812 15.7985 18.5715 15.5712 18.5715H12.1427C11.9153 18.5715 11.6973 18.4812 11.5366 18.3205C11.3758 18.1598 11.2855 17.9417 11.2855 17.7144C11.2855 17.4871 11.3758 17.2691 11.5366 17.1083C11.6973 16.9476 11.9153 16.8573 12.1427 16.8573H15.5712C15.7985 16.8573 16.0165 16.9476 16.1772 17.1083C16.338 17.2691 16.4283 17.4871 16.4283 17.7144ZM8.95414 15.8373L7.05989 17.8258L5.8342 16.7973C5.65575 16.6518 5.42681 16.5832 5.19775 16.6065C4.9687 16.6298 4.75828 16.7431 4.61279 16.9216C4.4673 17.1 4.39866 17.329 4.42197 17.558C4.44528 17.7871 4.55862 17.9975 4.73707 18.143L6.57133 19.6858C6.72553 19.8136 6.91962 19.8833 7.11989 19.883C7.23679 19.8837 7.3526 19.8605 7.46021 19.8148C7.56781 19.7691 7.66493 19.7019 7.74559 19.6172L10.1884 17.0459C10.3261 16.879 10.3956 16.6663 10.383 16.4503C10.3703 16.2344 10.2765 16.0312 10.1203 15.8815C9.96416 15.7318 9.75716 15.6467 9.54087 15.6433C9.32458 15.6399 9.11498 15.7184 8.95414 15.863V15.8373ZM15.5712 10.0003H12.1427C11.9153 10.0003 11.6973 10.0906 11.5366 10.2513C11.3758 10.4121 11.2855 10.6301 11.2855 10.8574C11.2855 11.0847 11.3758 11.3027 11.5366 11.4635C11.6973 11.6242 11.9153 11.7145 12.1427 11.7145H15.5712C15.7985 11.7145 16.0165 11.6242 16.1772 11.4635C16.338 11.3027 16.4283 11.0847 16.4283 10.8574C16.4283 10.6301 16.338 10.4121 16.1772 10.2513C16.0165 10.0906 15.7985 10.0003 15.5712 10.0003ZM8.95414 8.98029L7.05989 10.9688L5.8342 9.94027C5.65575 9.79479 5.42681 9.72615 5.19775 9.74945C4.9687 9.77276 4.75828 9.88611 4.61279 10.0646C4.4673 10.243 4.39866 10.4719 4.42197 10.701C4.44528 10.9301 4.55862 11.1405 4.73707 11.286L6.57133 12.8288C6.72553 12.9566 6.91962 13.0263 7.11989 13.0259C7.23679 13.0267 7.3526 13.0035 7.46021 12.9578C7.56781 12.9121 7.66493 12.8448 7.74559 12.7602L10.1884 10.1888C10.2761 10.11 10.3465 10.0139 10.3954 9.90658C10.4442 9.79925 10.4704 9.68301 10.4723 9.56511C10.4741 9.44721 10.4517 9.33019 10.4062 9.22137C10.3608 9.11255 10.2934 9.01428 10.2083 8.93269C10.1232 8.85111 10.0221 8.78796 9.91147 8.74721C9.80082 8.70646 9.68295 8.68898 9.56524 8.69586C9.44752 8.70274 9.33249 8.73384 9.22734 8.7872C9.1222 8.84057 9.02919 8.91505 8.95414 9.006V8.98029ZM19.8568 4.85751V22.8572C19.8568 23.4255 19.631 23.9705 19.2292 24.3724C18.8273 24.7742 18.2823 25 17.714 25H3.14282C2.57451 25 2.02947 24.7742 1.62762 24.3724C1.22576 23.9705 1 23.4255 1 22.8572V4.85751C1 4.2892 1.22576 3.74416 1.62762 3.34231C2.02947 2.94045 2.57451 2.71469 3.14282 2.71469H5.32849C5.42729 2.23069 5.69028 1.79568 6.07295 1.4833C6.45562 1.17091 6.93447 1.00034 7.42845 1.00044H13.4283C13.9296 0.990326 14.4186 1.15633 14.8102 1.46956C15.2017 1.78278 15.471 2.22339 15.5712 2.71469H17.714C18.2823 2.71469 18.8273 2.94045 19.2292 3.34231C19.631 3.74416 19.8568 4.2892 19.8568 4.85751ZM6.99989 4.00038C6.99989 4.11404 7.04504 4.22305 7.12541 4.30342C7.20579 4.38379 7.31479 4.42895 7.42845 4.42895H13.4283C13.542 4.42895 13.651 4.38379 13.7314 4.30342C13.8118 4.22305 13.8569 4.11404 13.8569 4.00038V3.14325C13.8569 3.02959 13.8118 2.92059 13.7314 2.84021C13.651 2.75984 13.542 2.71469 13.4283 2.71469H7.42845C7.31479 2.71469 7.20579 2.75984 7.12541 2.84021C7.04504 2.92059 6.99989 3.02959 6.99989 3.14325V4.00038ZM18.1425 4.85751C18.1425 4.74385 18.0974 4.63484 18.017 4.55447C17.9367 4.4741 17.8276 4.42895 17.714 4.42895H15.5712C15.471 4.92024 15.2017 5.36085 14.8102 5.67408C14.4186 5.9873 13.9296 6.15331 13.4283 6.1432H7.42845C6.93447 6.1433 6.45562 5.97272 6.07295 5.66034C5.69028 5.34796 5.42729 4.91295 5.32849 4.42895H3.14282C3.02916 4.42895 2.92015 4.4741 2.83978 4.55447C2.75941 4.63484 2.71425 4.74385 2.71425 4.85751V22.8572C2.71425 22.9708 2.75941 23.0799 2.83978 23.1602C2.92015 23.2406 3.02916 23.2857 3.14282 23.2857H17.714C17.8276 23.2857 17.9367 23.2406 18.017 23.1602C18.0974 23.0799 18.1425 22.9708 18.1425 22.8572V4.85751Z" fill="var(--fill-0, black)" stroke="var(--stroke-0, black)" stroke-width="0.2"/>
</svg>
