<svg preserveAspectRatio="none" width="100%" height="100%" overflow="visible" style="display: block;" viewBox="0 0 20 22" fill="none" xmlns="http://www.w3.org/2000/svg">
<path id="Vector" d="M19.6374 11.3574L8.38738 0.359382C8.152 0.129273 7.83276 0 7.49988 0C7.167 0 6.84776 0.129273 6.61237 0.359382C6.37699 0.58949 6.24476 0.901585 6.24476 1.22701C6.24476 1.55243 6.37699 1.86452 6.61237 2.09463L8.26238 3.69546L1.04985 11.2597C0.377597 11.9177 0 12.8097 0 13.7398C0 14.6698 0.377597 15.5618 1.04985 16.2198L5.91237 20.9734C6.24487 21.3001 6.64036 21.559 7.07593 21.7352C7.5115 21.9114 7.9785 22.0014 8.44988 21.9999C8.91372 22.0032 9.3736 21.9163 9.80279 21.7442C10.232 21.5722 10.6219 21.3185 10.9499 20.9979L19.5999 13.1171C19.7247 13.0077 19.8248 12.874 19.8936 12.7246C19.9625 12.5752 19.9987 12.4134 19.9999 12.2495C20.0036 11.9172 19.8734 11.5968 19.6374 11.3574ZM4.71237 11.0018L10.0374 5.43071L15.7374 11.0018H4.71237Z" fill="var(--fill-0, #72727B)"/>
</svg>
