<svg preserveAspectRatio="none" width="100%" height="100%" overflow="visible" style="display: block;" viewBox="0 0 24 24" fill="none" xmlns="http://www.w3.org/2000/svg">
<g id="Vector">
<path d="M23 2.96429V21.0357C23 21.5567 22.793 22.0563 22.4247 22.4247C22.0563 22.793 21.5567 23 21.0357 23H15.9286C15.7202 23 15.5203 22.9172 15.373 22.7699C15.2256 22.6225 15.1429 22.4227 15.1429 22.2143C15.1429 22.0059 15.2256 21.8061 15.373 21.6587C15.5203 21.5114 15.7202 21.4286 15.9286 21.4286H21.0357C21.1399 21.4286 21.2398 21.3872 21.3135 21.3135C21.3872 21.2398 21.4286 21.1399 21.4286 21.0357V2.96429C21.4286 2.86009 21.3872 2.76017 21.3135 2.68649C21.2398 2.61282 21.1399 2.57143 21.0357 2.57143H15.9286C15.7202 2.57143 15.5203 2.48865 15.373 2.3413C15.2256 2.19395 15.1429 1.9941 15.1429 1.78571C15.1429 1.57733 15.2256 1.37748 15.373 1.23013C15.5203 1.08278 15.7202 1 15.9286 1H21.0357C21.5567 1 22.0563 1.20695 22.4247 1.57533C22.793 1.9437 23 2.44332 23 2.96429ZM16.4864 11.4421L11.7721 6.72786C11.6242 6.5799 11.4235 6.49679 11.2143 6.49679C11.005 6.49679 10.8044 6.5799 10.6564 6.72786C10.5085 6.87581 10.4254 7.07648 10.4254 7.28571C10.4254 7.49495 10.5085 7.69562 10.6564 7.84357L14.035 11.2143H1.78571C1.57733 11.2143 1.37748 11.2971 1.23013 11.4444C1.08278 11.5918 1 11.7916 1 12C1 12.2084 1.08278 12.4082 1.23013 12.5556C1.37748 12.7029 1.57733 12.7857 1.78571 12.7857H14.035L10.6564 16.1564C10.5828 16.2295 10.5243 16.3164 10.4844 16.4121C10.4446 16.5079 10.424 16.6106 10.424 16.7143C10.424 16.818 10.4446 16.9207 10.4844 17.0165C10.5243 17.1122 10.5828 17.1991 10.6564 17.2721C10.7295 17.3458 10.8164 17.4042 10.9121 17.4441C11.0079 17.484 11.1106 17.5046 11.2143 17.5046C11.318 17.5046 11.4207 17.484 11.5165 17.4441C11.6122 17.4042 11.6991 17.3458 11.7721 17.2721L16.4864 12.5579C16.5601 12.4848 16.6185 12.3979 16.6584 12.3022C16.6983 12.2064 16.7188 12.1037 16.7188 12C16.7188 11.8963 16.6983 11.7936 16.6584 11.6978C16.6185 11.6021 16.5601 11.5152 16.4864 11.4421Z" fill="var(--fill-0, black)"/>
<path d="M23 2.96429V21.0357C23 21.5567 22.793 22.0563 22.4247 22.4247C22.0563 22.793 21.5567 23 21.0357 23H15.9286C15.7202 23 15.5203 22.9172 15.373 22.7699C15.2256 22.6225 15.1429 22.4227 15.1429 22.2143C15.1429 22.0059 15.2256 21.8061 15.373 21.6587C15.5203 21.5114 15.7202 21.4286 15.9286 21.4286H21.0357C21.1399 21.4286 21.2398 21.3872 21.3135 21.3135C21.3872 21.2398 21.4286 21.1399 21.4286 21.0357V2.96429C21.4286 2.86009 21.3872 2.76017 21.3135 2.68649C21.2398 2.61282 21.1399 2.57143 21.0357 2.57143H15.9286C15.7202 2.57143 15.5203 2.48865 15.373 2.3413C15.2256 2.19395 15.1429 1.9941 15.1429 1.78571C15.1429 1.57733 15.2256 1.37748 15.373 1.23013C15.5203 1.08278 15.7202 1 15.9286 1H21.0357C21.5567 1 22.0563 1.20695 22.4247 1.57533C22.793 1.9437 23 2.44332 23 2.96429ZM16.4864 11.4421L11.7721 6.72786C11.6242 6.5799 11.4235 6.49679 11.2143 6.49679C11.005 6.49679 10.8044 6.5799 10.6564 6.72786C10.5085 6.87581 10.4254 7.07648 10.4254 7.28571C10.4254 7.49495 10.5085 7.69562 10.6564 7.84357L14.035 11.2143H1.78571C1.57733 11.2143 1.37748 11.2971 1.23013 11.4444C1.08278 11.5918 1 11.7916 1 12C1 12.2084 1.08278 12.4082 1.23013 12.5556C1.37748 12.7029 1.57733 12.7857 1.78571 12.7857H14.035L10.6564 16.1564C10.5828 16.2295 10.5243 16.3164 10.4844 16.4121C10.4446 16.5079 10.424 16.6106 10.424 16.7143C10.424 16.818 10.4446 16.9207 10.4844 17.0165C10.5243 17.1122 10.5828 17.1991 10.6564 17.2721C10.7295 17.3458 10.8164 17.4042 10.9121 17.4441C11.0079 17.484 11.1106 17.5046 11.2143 17.5046C11.318 17.5046 11.4207 17.484 11.5165 17.4441C11.6122 17.4042 11.6991 17.3458 11.7721 17.2721L16.4864 12.5579C16.5601 12.4848 16.6185 12.3979 16.6584 12.3022C16.6983 12.2064 16.7188 12.1037 16.7188 12C16.7188 11.8963 16.6983 11.7936 16.6584 11.6978C16.6185 11.6021 16.5601 11.5152 16.4864 11.4421Z" fill="var(--fill-1, black)" fill-opacity="0.2"/>
<path d="M23 2.96429V21.0357C23 21.5567 22.793 22.0563 22.4247 22.4247C22.0563 22.793 21.5567 23 21.0357 23H15.9286C15.7202 23 15.5203 22.9172 15.373 22.7699C15.2256 22.6225 15.1429 22.4227 15.1429 22.2143C15.1429 22.0059 15.2256 21.8061 15.373 21.6587C15.5203 21.5114 15.7202 21.4286 15.9286 21.4286H21.0357C21.1399 21.4286 21.2398 21.3872 21.3135 21.3135C21.3872 21.2398 21.4286 21.1399 21.4286 21.0357V2.96429C21.4286 2.86009 21.3872 2.76017 21.3135 2.68649C21.2398 2.61282 21.1399 2.57143 21.0357 2.57143H15.9286C15.7202 2.57143 15.5203 2.48865 15.373 2.3413C15.2256 2.19395 15.1429 1.9941 15.1429 1.78571C15.1429 1.57733 15.2256 1.37748 15.373 1.23013C15.5203 1.08278 15.7202 1 15.9286 1H21.0357C21.5567 1 22.0563 1.20695 22.4247 1.57533C22.793 1.9437 23 2.44332 23 2.96429ZM16.4864 11.4421L11.7721 6.72786C11.6242 6.5799 11.4235 6.49679 11.2143 6.49679C11.005 6.49679 10.8044 6.5799 10.6564 6.72786C10.5085 6.87581 10.4254 7.07648 10.4254 7.28571C10.4254 7.49495 10.5085 7.69562 10.6564 7.84357L14.035 11.2143H1.78571C1.57733 11.2143 1.37748 11.2971 1.23013 11.4444C1.08278 11.5918 1 11.7916 1 12C1 12.2084 1.08278 12.4082 1.23013 12.5556C1.37748 12.7029 1.57733 12.7857 1.78571 12.7857H14.035L10.6564 16.1564C10.5828 16.2295 10.5243 16.3164 10.4844 16.4121C10.4446 16.5079 10.424 16.6106 10.424 16.7143C10.424 16.818 10.4446 16.9207 10.4844 17.0165C10.5243 17.1122 10.5828 17.1991 10.6564 17.2721C10.7295 17.3458 10.8164 17.4042 10.9121 17.4441C11.0079 17.484 11.1106 17.5046 11.2143 17.5046C11.318 17.5046 11.4207 17.484 11.5165 17.4441C11.6122 17.4042 11.6991 17.3458 11.7721 17.2721L16.4864 12.5579C16.5601 12.4848 16.6185 12.3979 16.6584 12.3022C16.6983 12.2064 16.7188 12.1037 16.7188 12C16.7188 11.8963 16.6983 11.7936 16.6584 11.6978C16.6185 11.6021 16.5601 11.5152 16.4864 11.4421Z" stroke="var(--stroke-0, black)" stroke-width="0.4"/>
<path d="M23 2.96429V21.0357C23 21.5567 22.793 22.0563 22.4247 22.4247C22.0563 22.793 21.5567 23 21.0357 23H15.9286C15.7202 23 15.5203 22.9172 15.373 22.7699C15.2256 22.6225 15.1429 22.4227 15.1429 22.2143C15.1429 22.0059 15.2256 21.8061 15.373 21.6587C15.5203 21.5114 15.7202 21.4286 15.9286 21.4286H21.0357C21.1399 21.4286 21.2398 21.3872 21.3135 21.3135C21.3872 21.2398 21.4286 21.1399 21.4286 21.0357V2.96429C21.4286 2.86009 21.3872 2.76017 21.3135 2.68649C21.2398 2.61282 21.1399 2.57143 21.0357 2.57143H15.9286C15.7202 2.57143 15.5203 2.48865 15.373 2.3413C15.2256 2.19395 15.1429 1.9941 15.1429 1.78571C15.1429 1.57733 15.2256 1.37748 15.373 1.23013C15.5203 1.08278 15.7202 1 15.9286 1H21.0357C21.5567 1 22.0563 1.20695 22.4247 1.57533C22.793 1.9437 23 2.44332 23 2.96429ZM16.4864 11.4421L11.7721 6.72786C11.6242 6.5799 11.4235 6.49679 11.2143 6.49679C11.005 6.49679 10.8044 6.5799 10.6564 6.72786C10.5085 6.87581 10.4254 7.07648 10.4254 7.28571C10.4254 7.49495 10.5085 7.69562 10.6564 7.84357L14.035 11.2143H1.78571C1.57733 11.2143 1.37748 11.2971 1.23013 11.4444C1.08278 11.5918 1 11.7916 1 12C1 12.2084 1.08278 12.4082 1.23013 12.5556C1.37748 12.7029 1.57733 12.7857 1.78571 12.7857H14.035L10.6564 16.1564C10.5828 16.2295 10.5243 16.3164 10.4844 16.4121C10.4446 16.5079 10.424 16.6106 10.424 16.7143C10.424 16.818 10.4446 16.9207 10.4844 17.0165C10.5243 17.1122 10.5828 17.1991 10.6564 17.2721C10.7295 17.3458 10.8164 17.4042 10.9121 17.4441C11.0079 17.484 11.1106 17.5046 11.2143 17.5046C11.318 17.5046 11.4207 17.484 11.5165 17.4441C11.6122 17.4042 11.6991 17.3458 11.7721 17.2721L16.4864 12.5579C16.5601 12.4848 16.6185 12.3979 16.6584 12.3022C16.6983 12.2064 16.7188 12.1037 16.7188 12C16.7188 11.8963 16.6983 11.7936 16.6584 11.6978C16.6185 11.6021 16.5601 11.5152 16.4864 11.4421Z" stroke="var(--stroke-1, black)" stroke-opacity="0.2" stroke-width="0.4"/>
</g>
</svg>
