<svg preserveAspectRatio="none" width="100%" height="100%" overflow="visible" style="display: block;" viewBox="0 0 23 26" fill="none" xmlns="http://www.w3.org/2000/svg">
<g id="Group">
<path id="Vector" d="M21.6394 6.76668L11.8494 1.09471C11.6315 0.96843 11.3626 0.96843 11.1446 1.09471L1.35067 6.76663C1.13477 6.89174 1 7.12466 1 7.37441C1 7.37582 1.00014 7.37723 1.00014 7.37859V18.625C1.00014 18.8772 1.13716 19.1131 1.3578 19.2374L11.1447 24.9053C11.2501 24.9664 11.3755 25 11.4971 25C11.624 25 11.748 24.9641 11.8495 24.9053L21.6324 19.2373C21.634 19.2364 21.6356 19.2354 21.6373 19.2345C21.864 19.0709 21.9862 18.9334 21.9896 18.6335C21.9897 18.6307 21.9899 18.6279 21.9899 18.6251V7.37868C21.9899 7.37727 21.9901 7.37587 21.9901 7.37451C21.9901 7.12452 21.8552 6.89155 21.6394 6.76668ZM10.7941 23.0774L3.11477 18.6282L9.03503 15.2331C9.37183 15.04 9.48826 14.6104 9.29509 14.2737C9.10201 13.9369 8.67245 13.8205 8.33566 14.0136L2.40587 17.4117V8.58946L10.7941 13.4068V23.0774ZM11.497 12.1893L3.11373 7.3724L11.497 2.5153L19.8804 7.3724L11.497 12.1893ZM20.5886 17.4117L14.6584 14.0136C14.3217 13.8205 13.8921 13.9368 13.699 14.2736C13.5058 14.6104 13.6223 15.0399 13.9591 15.2331L19.8793 18.6281L12.1999 23.0774V13.4068L20.5886 8.58946V17.4117H20.5886Z" fill="var(--fill-0, black)" stroke="var(--stroke-0, black)" stroke-width="0.2"/>
</g>
</svg>
