<svg preserveAspectRatio="none" width="100%" height="100%" overflow="visible" style="display: block;" viewBox="0 0 26 24" fill="none" xmlns="http://www.w3.org/2000/svg">
<path id="Vector" d="M22.8571 4.42859H18.8114L18.3571 2.62002C18.2436 2.15628 17.9772 1.74427 17.6009 1.45039C17.2246 1.15651 16.7603 0.997866 16.2829 1.00002H9.71714C9.23969 0.997866 8.77542 1.15651 8.39913 1.45039C8.02284 1.74427 7.75644 2.15628 7.64286 2.62002L7.18857 4.42859H3.14286C2.57454 4.42859 2.02949 4.65436 1.62763 5.05622C1.22576 5.45809 1 6.00313 1 6.57145V21.1429C1 21.7112 1.22576 22.2562 1.62763 22.6581C2.02949 23.06 2.57454 23.2857 3.14286 23.2857H22.8571C23.4255 23.2857 23.9705 23.06 24.3724 22.6581C24.7742 22.2562 25 21.7112 25 21.1429V6.57145C25 6.00313 24.7742 5.45809 24.3724 5.05622C23.9705 4.65436 23.4255 4.42859 22.8571 4.42859ZM23.2857 21.1429C23.2857 21.2565 23.2406 21.3656 23.1602 21.4459C23.0798 21.5263 22.9708 21.5715 22.8571 21.5715H3.14286C3.02919 21.5715 2.92018 21.5263 2.83981 21.4459C2.75944 21.3656 2.71429 21.2565 2.71429 21.1429V6.57145C2.71429 6.45779 2.75944 6.34878 2.83981 6.2684C2.92018 6.18803 3.02919 6.14288 3.14286 6.14288H7.85714C8.05294 6.14858 8.24479 6.08705 8.40075 5.96852C8.5567 5.85 8.66736 5.68163 8.71429 5.49145L9.33143 3.04002C9.35172 2.95126 9.40032 2.87149 9.46989 2.81274C9.53946 2.754 9.62623 2.71945 9.71714 2.71431H16.2829C16.3782 2.71382 16.4709 2.74581 16.5457 2.805C16.6205 2.8642 16.6729 2.94708 16.6943 3.04002L17.2857 5.49145C17.3326 5.68163 17.4433 5.85 17.5993 5.96852C17.7552 6.08705 17.9471 6.14858 18.1429 6.14288H22.8571C22.9708 6.14288 23.0798 6.18803 23.1602 6.2684C23.2406 6.34878 23.2857 6.45779 23.2857 6.57145V21.1429ZM13 7.85716C11.8133 7.85716 10.6533 8.20906 9.66658 8.86835C8.67988 9.52764 7.91085 10.4647 7.45672 11.5611C7.0026 12.6574 6.88378 13.8638 7.11529 15.0277C7.3468 16.1916 7.91824 17.2607 8.75736 18.0998C9.59647 18.9389 10.6656 19.5104 11.8295 19.7419C12.9933 19.9734 14.1997 19.8546 15.2961 19.4004C16.3925 18.9463 17.3295 18.1773 17.9888 17.1906C18.6481 16.2039 19 15.0439 19 13.8572C19 12.2659 18.3679 10.7397 17.2426 9.61452C16.1174 8.48931 14.5913 7.85716 13 7.85716ZM13 18.1429C12.1524 18.1429 11.3238 17.8915 10.619 17.4206C9.9142 16.9497 9.36489 16.2803 9.04052 15.4972C8.71614 14.7141 8.63127 13.8524 8.79663 13.0211C8.962 12.1897 9.37017 11.4261 9.96954 10.8267C10.5689 10.2273 11.3326 9.81916 12.1639 9.6538C12.9952 9.48843 13.857 9.57331 14.6401 9.89768C15.4232 10.2221 16.0925 10.7714 16.5634 11.4761C17.0344 12.1809 17.2857 13.0095 17.2857 13.8572C17.2857 14.42 17.1749 14.9773 16.9595 15.4972C16.7441 16.0172 16.4284 16.4897 16.0305 16.8876C15.6325 17.2856 15.16 17.6013 14.6401 17.8166C14.1201 18.032 13.5628 18.1429 13 18.1429ZM10.4286 5.28574C10.4286 5.05841 10.5189 4.84039 10.6796 4.67964C10.8404 4.5189 11.0584 4.42859 11.2857 4.42859H14.7143C14.9416 4.42859 15.1596 4.5189 15.3204 4.67964C15.4811 4.84039 15.5714 5.05841 15.5714 5.28574C15.5714 5.51306 15.4811 5.73108 15.3204 5.89183C15.1596 6.05257 14.9416 6.14288 14.7143 6.14288H11.2857C11.0584 6.14288 10.8404 6.05257 10.6796 5.89183C10.5189 5.73108 10.4286 5.51306 10.4286 5.28574Z" fill="var(--fill-0, black)" stroke="var(--stroke-0, black)" stroke-width="0.2"/>
</svg>
