<svg preserveAspectRatio="none" width="100%" height="100%" overflow="visible" style="display: block;" viewBox="0 0 26 26" fill="none" xmlns="http://www.w3.org/2000/svg">
<path id="Product_Package" d="M24.6986 6.78477L13.2441 1.05748C13.0905 0.980841 12.9095 0.980841 12.7562 1.05748L1.30164 6.78477C1.11673 6.87722 1 7.06595 1 7.27268V18.7273C1 18.934 1.11673 19.1227 1.30136 19.2152L12.7559 24.9425C12.8328 24.9809 12.9163 25 13 25C13.0837 25 13.1672 24.9809 13.2441 24.9425L24.6986 19.2152C24.8833 19.1227 25 18.934 25 18.7273V7.27268C25 7.06595 24.8833 6.87722 24.6986 6.78477ZM13 2.15521L23.2349 7.27268L21.0455 8.36741L10.8108 3.24994L13 2.15521ZM16.6818 10.5492L6.44691 5.43176L9.59091 3.85976L19.8258 8.97723L16.6818 10.5492ZM17.0909 11.5643L20.3636 9.92796V13.9853L19.3169 13.2378C19.1983 13.153 19.0499 13.1194 18.9062 13.1442C18.7625 13.1696 18.6345 13.2511 18.5514 13.3711L17.0909 15.4812V11.5643ZM5.22727 6.04158L15.4619 11.1591L13 12.3901L2.76509 7.27268L5.22727 6.04158ZM2.09091 8.15523L12.4545 13.3371V23.5717L2.09091 18.3899V8.15523ZM13.5455 23.572V13.3371L16 12.1098V17.2273C16 17.4659 16.1549 17.6767 16.3826 17.7479C16.4366 17.7648 16.4912 17.7727 16.5455 17.7727C16.7211 17.7727 16.8902 17.6876 16.9941 17.5379L19.1336 14.4476L20.5925 15.4894C20.7588 15.6081 20.9775 15.6242 21.1589 15.5303C21.3403 15.4371 21.4545 15.2497 21.4545 15.0454V9.3825L23.9091 8.15523V18.3899L13.5455 23.572Z" fill="var(--fill-0, black)" stroke="var(--stroke-0, black)" stroke-width="0.5"/>
</svg>
