<svg preserveAspectRatio="none" width="100%" height="100%" overflow="visible" style="display: block;" viewBox="0 0 8 10" fill="none" xmlns="http://www.w3.org/2000/svg">
<path id="Vector" d="M8 6.24533C8 7.24113 7.57857 8.19615 6.82843 8.90028C6.07828 9.60442 5.06087 10 4 10C2.93913 10 1.92172 9.60442 1.17157 8.90028C0.421427 8.19615 0 7.24113 0 6.24533C0 4.63833 2.02667 1.70093 2.90667 0.508195C3.03494 0.350209 3.20034 0.222155 3.38998 0.134008C3.57962 0.0458602 3.78838 0 4 0C4.21162 0 4.42038 0.0458602 4.61002 0.134008C4.79966 0.222155 4.96506 0.350209 5.09333 0.508195C5.97333 1.69968 8 4.63833 8 6.24533Z" fill="var(--fill-0, #72727B)"/>
</svg>
